<svg width="84" height="41" viewBox="0 0 84 41" fill="none" xmlns="http://www.w3.org/2000/svg">
<path d="M6.1495 26.7142V27.4573C5.66865 26.8599 4.96922 26.5102 4.02207 26.5102C1.95293 26.5102 0.4375 28.2005 0.4375 30.2113C0.4375 32.2222 1.95293 33.9125 4.02207 33.9125C4.96922 33.9125 5.66865 33.5628 6.1495 32.9653V33.6356C6.1495 34.6702 5.52293 35.1948 4.50293 35.1948C3.54122 35.1948 3.11864 34.7868 2.84179 34.2768L0.976643 35.3551C1.64693 36.5499 2.91464 37.1182 4.43007 37.1182C6.36807 37.1182 8.27693 36.0836 8.27693 33.6356V26.7142H6.1495ZM4.38636 31.9016C3.35179 31.9016 2.62321 31.2168 2.62321 30.2113C2.62321 29.2059 3.35179 28.5211 4.38636 28.5211C5.42093 28.5211 6.1495 29.2059 6.1495 30.2113C6.1495 31.2168 5.42093 31.9016 4.38636 31.9016Z" fill="#533BE2"/>
<path d="M11.5416 31.2313H16.7145C16.7728 30.9545 16.8019 30.6631 16.8019 30.3571C16.8019 28.1568 15.2282 26.5102 13.1008 26.5102C10.7985 26.5102 9.22476 28.1859 9.22476 30.3571C9.22476 32.5282 10.7693 34.2039 13.261 34.2039C14.6453 34.2039 15.7236 33.6939 16.4376 32.7031L14.689 31.6976C14.3976 32.0182 13.8876 32.2513 13.2902 32.2513C12.4888 32.2513 11.8185 31.9891 11.5416 31.2313ZM11.4979 29.5993C11.7019 28.8562 12.2556 28.4482 13.0862 28.4482C13.7419 28.4482 14.3976 28.7542 14.6308 29.5993H11.4979Z" fill="#533BE2"/>
<path d="M22.0196 26.5102C21.0579 26.5102 20.3293 26.8599 19.9359 27.3991V26.7142H17.7502V33.9999H19.9359V30.0219C19.9359 28.9873 20.4896 28.5211 21.291 28.5211C21.9905 28.5211 22.5588 28.9436 22.5588 29.8471V33.9999H24.7445V29.5265C24.7445 27.5593 23.4913 26.5102 22.0196 26.5102Z" fill="#533BE2"/>
<path d="M28.0232 28.8416C28.0232 28.5793 28.2563 28.4336 28.6352 28.4336C29.116 28.4336 29.4074 28.6959 29.6114 29.0748L31.4766 28.0693C30.8646 27.0348 29.8154 26.5102 28.6352 26.5102C27.1197 26.5102 25.7792 27.3116 25.7792 28.8999C25.7792 31.4208 29.3637 30.9982 29.3637 31.7996C29.3637 32.0911 29.1014 32.2513 28.5769 32.2513C27.9357 32.2513 27.5277 31.9453 27.3383 31.3916L25.444 32.4699C26.0123 33.6502 27.1197 34.2039 28.5769 34.2039C30.1506 34.2039 31.6077 33.4899 31.6077 31.8142C31.6077 29.1185 28.0232 29.6722 28.0232 28.8416Z" fill="#533BE2"/>
<path d="M37.6258 23.7999V27.3991C37.145 26.8453 36.431 26.5102 35.4547 26.5102C33.5458 26.5102 31.9721 28.1859 31.9721 30.3571C31.9721 32.5282 33.5458 34.2039 35.4547 34.2039C36.431 34.2039 37.145 33.8688 37.6258 33.3151V33.9999H39.8116V23.7999H37.6258ZM35.8918 32.1348C34.8864 32.1348 34.1578 31.4499 34.1578 30.3571C34.1578 29.2642 34.8864 28.5793 35.8918 28.5793C36.8973 28.5793 37.6258 29.2642 37.6258 30.3571C37.6258 31.4499 36.8973 32.1348 35.8918 32.1348Z" fill="#533BE2"/>
<path d="M45.8302 26.7142V30.6922C45.8302 31.7268 45.2765 32.1931 44.4751 32.1931C43.7757 32.1931 43.2074 31.7705 43.2074 30.8671V26.7142H41.0217V31.1876C41.0217 33.1548 42.2748 34.2039 43.7465 34.2039C44.7082 34.2039 45.4368 33.8542 45.8302 33.3151V33.9999H48.016V26.7142H45.8302Z" fill="#533BE2"/>
<path d="M52.8246 34.2039C54.2527 34.2039 55.4912 33.4608 56.1178 32.3242L54.2089 31.2313C53.9758 31.7413 53.4366 32.0473 52.7955 32.0473C51.8484 32.0473 51.1489 31.3625 51.1489 30.3571C51.1489 29.3516 51.8484 28.6668 52.7955 28.6668C53.4366 28.6668 53.9612 28.9728 54.2089 29.4828L56.1178 28.3753C55.4912 27.2533 54.2381 26.5102 52.8246 26.5102C50.6098 26.5102 48.9632 28.1859 48.9632 30.3571C48.9632 32.5282 50.6098 34.2039 52.8246 34.2039Z" fill="#533BE2"/>
<path d="M60.0608 34.2039C62.2028 34.2039 63.9223 32.5282 63.9223 30.3571C63.9223 28.1859 62.2028 26.5102 60.0608 26.5102C57.9188 26.5102 56.1994 28.1859 56.1994 30.3571C56.1994 32.5282 57.9188 34.2039 60.0608 34.2039ZM60.0608 32.0765C59.1137 32.0765 58.3851 31.3916 58.3851 30.3571C58.3851 29.3225 59.1137 28.6376 60.0608 28.6376C61.008 28.6376 61.7366 29.3225 61.7366 30.3571C61.7366 31.3916 61.008 32.0765 60.0608 32.0765Z" fill="#533BE2"/>
<path d="M65.96 26.0731C66.674 26.0731 67.2714 25.4756 67.2714 24.7616C67.2714 24.0476 66.674 23.4502 65.96 23.4502C65.246 23.4502 64.6486 24.0476 64.6486 24.7616C64.6486 25.4756 65.246 26.0731 65.96 26.0731ZM64.8671 33.9999H67.0529V26.7142H64.8671V33.9999Z" fill="#533BE2"/>
<path d="M72.6303 26.5102C71.6686 26.5102 70.94 26.8599 70.5466 27.3991V26.7142H68.3609V33.9999H70.5466V30.0219C70.5466 28.9873 71.1003 28.5211 71.9017 28.5211C72.6012 28.5211 73.1694 28.9436 73.1694 29.8471V33.9999H75.3552V29.5265C75.3552 27.5593 74.102 26.5102 72.6303 26.5102Z" fill="#533BE2"/>
<path d="M19 21V19C19 17.9391 18.5786 16.9217 17.8284 16.1716C17.0783 15.4214 16.0609 15 15 15H7C5.93913 15 4.92172 15.4214 4.17157 16.1716C3.42143 16.9217 3 17.9391 3 19V21" stroke="#533BE2" stroke-width="2.5" stroke-linecap="round" stroke-linejoin="round"/>
<path d="M25 20.9999V18.9999C24.9993 18.1136 24.7044 17.2527 24.1614 16.5522C23.6184 15.8517 22.8581 15.3515 22 15.1299" stroke="#533BE2" stroke-width="2" stroke-linecap="round" stroke-linejoin="round"/>
<path d="M18 3.12988C18.8604 3.35018 19.623 3.85058 20.1676 4.55219C20.7122 5.2538 21.0078 6.11671 21.0078 7.00488C21.0078 7.89305 20.7122 8.75596 20.1676 9.45757C19.623 10.1592 18.8604 10.6596 18 10.8799" stroke="#533BE2" stroke-width="2" stroke-linecap="round" stroke-linejoin="round"/>
<path fill-rule="evenodd" clip-rule="evenodd" d="M11 0.75C8.1005 0.75 5.75 3.1005 5.75 6C5.75 6.01511 5.75006 6.03021 5.75019 6.04529C5.75006 6.06049 5.75 6.0757 5.75 6.09091C5.75 8.17378 7.03116 9.95261 8.08298 11.0881C8.63278 11.6816 9.17855 12.1618 9.58565 12.4934C9.79017 12.6599 9.96215 12.791 10.0855 12.8821C10.1472 12.9276 10.1969 12.9633 10.2326 12.9886L10.2754 13.0187L10.2885 13.0278L10.2929 13.0308L10.2945 13.0319L10.2952 13.0324C10.2955 13.0326 10.2958 13.0328 11 12L10.2958 13.0328C10.7206 13.3224 11.2794 13.3224 11.7042 13.0328L11 12C11.7042 13.0328 11.7045 13.0326 11.7048 13.0324L11.7055 13.0319L11.7071 13.0308L11.7115 13.0278L11.7246 13.0187L11.7674 12.9886C11.8031 12.9633 11.8528 12.9276 11.9145 12.8821C12.0378 12.791 12.2098 12.6599 12.4143 12.4934C12.8215 12.1618 13.3672 11.6816 13.917 11.0881C14.9688 9.95261 16.25 8.17378 16.25 6.09091C16.25 6.0757 16.2499 6.06049 16.2498 6.04529C16.2499 6.03021 16.25 6.01511 16.25 6C16.25 3.1005 13.8995 0.75 11 0.75ZM13.7496 6.04492C13.7256 7.54299 12.5038 8.75 11 8.75C9.49622 8.75 8.27435 7.54299 8.25036 6.04492C8.26202 5.29937 8.55684 4.59214 9.06533 4.0721C9.58333 3.54232 10.2798 3.25 11 3.25C11.7202 3.25 12.4167 3.54232 12.9347 4.0721C13.4432 4.59214 13.738 5.29937 13.7496 6.04492Z" fill="#533BE2"/>
</svg>
