<svg xmlns="http://www.w3.org/2000/svg" width="22" height="22" fill="none" viewBox="0 0 22 22">
  <path fill="#25282B" d="M21 15.92l-1-.025v.025h1zm0 3h-1v.004l1-.004zm-2.18 2l-.108.994.018.002.09-.996zm-8.63-3.07l.544-.839-.008-.005-.536.844zm-6-6l.844-.536-.005-.008-.839.544zM1.12 3.18l-.996.09.002.016.994-.106zM3.11 1V0h-.001l.001 1zm3 0v1h.01l-.01-1zm2 1.72l.991-.13v-.01l-.991.14zm.7 2.81l-.937.35v.002l.937-.352zm-.45 2.11l.707.707.004-.004-.711-.703zM7.09 8.91l-.707-.707a1 1 0 00-.162 1.201l.869-.494zm6 6l-.494.87a1 1 0 001.201-.163l-.707-.707zm1.27-1.27l-.703-.711-.004.004.707.707zm2.11-.45l-.352.936h.002l.35-.936zm2.81.7l.14-.99-.01-.001-.13.991zm.72 2.03v3h2v-3h-2zm0 3.004a1 1 0 01-.084.405l1.833.801c.167-.383.253-.796.251-1.214l-2 .008zm-.084.405a.999.999 0 01-.24.336l1.352 1.474c.308-.283.553-.626.72-1.009l-1.832-.801zm-.24.336a1 1 0 01-.356.21l.641 1.895c.396-.134.76-.349 1.067-.631l-1.352-1.474zm-.356.21a1 1 0 01-.41.05l-.18 1.99a3 3 0 001.231-.145l-.64-1.895zm-.392.05a18.791 18.791 0 01-8.194-2.914l-1.088 1.678a20.79 20.79 0 009.066 3.225l.216-1.988zm-8.202-2.919a18.5 18.5 0 01-5.692-5.692l-1.688 1.072a20.5 20.5 0 006.308 6.308l1.072-1.688zm-5.697-5.7a18.79 18.79 0 01-2.915-8.232l-1.988.212a20.79 20.79 0 003.225 9.108l1.678-1.088zM2.116 3.09a1 1 0 01.048-.41L.27 2.043A3 3 0 00.124 3.27l1.992-.18zm.048-.41a1 1 0 01.21-.354L.895.977A3 3 0 00.27 2.042l1.895.639zm.21-.354a1 1 0 01.334-.24L1.9.255A3 3 0 00.896.977l1.477 1.349zm.334-.24A1 1 0 013.11 2l-.002-2a3 3 0 00-1.21.256l.809 1.83zM3.11 2h3V0h-3v2zm3.01 0a1 1 0 01.662.242L8.086.725A3 3 0 006.1 0l.02 2zm.662.242a1 1 0 01.338.618l1.98-.28A3 3 0 008.086.725L6.782 2.242zm.337.609c.136 1.035.39 2.05.754 3.029l1.874-.7A11.84 11.84 0 019.1 2.59l-1.982.26zm.755 3.03a1 1 0 01.042.561l1.956.417a3 3 0 00-.126-1.68l-1.872.703zm.042.561a1 1 0 01-.267.495L9.07 8.343a3 3 0 00.8-1.484l-1.955-.417zm-.263.49l-1.27 1.27 1.414 1.415 1.27-1.27-1.414-1.414zM6.22 9.405a17 17 0 006.375 6.375l.988-1.738A15 15 0 017.96 8.416l-1.738.988zm7.576 6.213l1.27-1.27-1.414-1.414-1.27 1.27 1.414 1.414zm1.266-1.266a1 1 0 01.495-.267l-.418-1.956a3 3 0 00-1.483.801l1.406 1.422zm.495-.267a1 1 0 01.56.042l.704-1.872a3 3 0 00-1.681-.126l.417 1.956zm.562.043c.978.365 1.994.618 3.03.754l.26-1.982a11.841 11.841 0 01-2.59-.646l-.7 1.874zm3.02.753a1 1 0 01.624.344l1.526-1.293a3 3 0 00-1.87-1.031l-.28 1.98zm.624.344a1 1 0 01.236.671l2 .05a3 3 0 00-.71-2.014l-1.526 1.293z"/>
</svg>
