<svg xmlns="http://www.w3.org/2000/svg" width="24" height="24" fill="none" viewBox="0 0 24 24">
  <g clip-path="url(#clip0_211_10)">
    <path fill="#25282B" fill-rule="evenodd" d="M14.525 2.35a5.48 5.48 0 015.608 1.035 9.9 9.9 0 002.29-1.202 1 1 0 011.549 1.054 8.721 8.721 0 01-1.995 3.774c.015.161.022.323.023.486V7.5c0 6.1-2.937 10.575-7.155 12.82-4.194 2.232-9.554 2.208-14.33-.446a1 1 0 01.525-1.873 10.64 10.64 0 004.875-.968c-1.503-.928-2.586-2.029-3.338-3.217-1.004-1.584-1.382-3.263-1.451-4.77-.068-1.504.17-2.857.421-3.828a13.083 13.083 0 01.483-1.491l.039-.092.011-.027.004-.009.001-.003v-.001l-.016.04.017-.041a1 1 0 011.732-.169A9.66 9.66 0 0011 7.506a5.48 5.48 0 013.525-5.156zM3.405 6.044c-.184.801-.33 1.817-.281 2.91.056 1.243.365 2.564 1.143 3.792.773 1.222 2.049 2.411 4.14 3.34a1 1 0 01.155 1.741 12.64 12.64 0 01-3.602 1.689c3.17.807 6.347.422 8.945-.961C17.436 16.675 20 12.9 20 7.502c0-.216-.022-.432-.062-.644a1 1 0 01.28-.9c.223-.22.429-.454.618-.7-.227.083-.456.16-.688.23a1 1 0 01-1.043-.302A3.48 3.48 0 0013 7.516V8.53a1 1 0 01-.974 1 11.66 11.66 0 01-8.621-3.486z" clip-rule="evenodd"/>
  </g>
  <defs>
    <clipPath id="clip0_211_10">
      <path fill="#fff" d="M0 0h24v24H0z"/>
    </clipPath>
  </defs>
</svg>
